<?xml version="1.0" encoding="utf-8"?>
<!-- Generator: Adobe Illustrator 22.1.0, SVG Export Plug-In . SVG Version: 6.00 Build 0)  -->
<svg version="1.1" id="Layer_1" xmlns="http://www.w3.org/2000/svg" xmlns:xlink="http://www.w3.org/1999/xlink" x="0px" y="0px"
	 viewBox="0 0 84.6 97" style="enable-background:new 0 0 84.6 97;" xml:space="preserve">
<style type="text/css">
	.st0{fill:none;stroke:#ff6566;stroke-width:6;stroke-linecap:round;stroke-linejoin:round;stroke-miterlimit:10;}
</style>
<path class="st0" d="M59.8,3H11.5C6.8,3,3,6.9,3,11.5v23.4c0,4.6,3.8,8.4,8.5,8.4H13c2.1,0,4,1.2,4.9,3l3.5,7l3.5-7
	c0.9-1.8,2.8-3,4.9-3h30.1c4.6,0,8.5-3.8,8.5-8.4V11.5C68.3,6.9,64.4,3,59.8,3L59.8,3z"/>
<path class="st0" d="M75,52.7H38.9c-3.6,0-6.6,3-6.6,6.6v20.4c0,3.6,3,6.6,6.6,6.6h18.4c2.7,0,5.2,1.6,6.4,4l1.9,3.8l1.9-3.8
	c1.2-2.4,3.7-4,6.4-4H75c3.6,0,6.6-3,6.6-6.6V59.3C81.6,55.7,78.6,52.7,75,52.7L75,52.7z"/>
</svg>
