<?xml version="1.0" encoding="utf-8"?>
<!-- Generator: Adobe Illustrator 22.1.0, SVG Export Plug-In . SVG Version: 6.00 Build 0)  -->
<svg version="1.1" id="Layer_1" xmlns="http://www.w3.org/2000/svg" xmlns:xlink="http://www.w3.org/1999/xlink" x="0px" y="0px"
	 viewBox="0 0 672.1 239.9" style="enable-background:new 0 0 672.1 239.9;" xml:space="preserve">
<style type="text/css">
	.st0{fill:#FFFFFF;}
	.st1{fill:#DCDCDC;}
	.st2{fill:#4C4C4C;}
	.st3{fill:#FF6566;}
	.st4{fill:none;}
</style>
<path class="st0" d="M9.6,63.9c0,0,18.7-58.7,88.7-61c33.6-1.1,57,13.9,72.4,30.5c2.7,0.9,9.2-5.2,11.8-1.3
	c13.8,21.1,3.9,22.4,6.2,26.5c4.3,7.9,6.4,13.8,6.7,15.3c1.3,5.3,11.2,60.7-24.6,104.7s-53,52.3-70.4,58c0,0-40.2-8.9-72.3-55.7
	C16.1,159.9-11.1,117.9,9.6,63.9z"/>
<g>
	<path class="st1" d="M173.3,174.8c-13.9,21.1-31.5,37.2-46.1,47.8c-0.3-2.3-0.4-4.6-0.4-6.9c0-15.6,6-29.8,15.8-40.5
		C154.5,176.1,165.2,176.6,173.3,174.8z"/>
</g>
<g>
	<circle class="st1" cx="161.7" cy="87.7" r="22.2"/>
</g>
<g>
	<path class="st1" d="M56.6,127.7c0,19.4-15.7,35.1-35.1,35.1c-0.7,0-1.3,0-2-0.1c-3.8-6.9-7.4-14.6-9.9-22.8c6.1-1,14.8-12,14.6-36
		c11,9.7,21.7,14.5,31.6,16.1C56.3,122.6,56.6,125.1,56.6,127.7z"/>
</g>
<g>
	<path class="st1" d="M78.9,205.1c0-0.4-0.1-0.8-0.4-1.1c-0.7-0.6-1.7,0.1-2.3,0.8c-3.1,3.6-6.1,7.3-9.2,10.9c4,3.4,1.8,2.3,5.7,5.8
		c1.1,1,7,8.1,7.8,5.5C80.9,226.2,78.7,219.1,78.9,205.1z"/>
</g>
<path class="st2" d="M154.2,95.6c0.2,0,0.3,0,0.5,0c2.3-0.4,3.4-3.4,2.8-7.1c-0.3-1.5-0.9-3-1.6-4c-1-1.3-2.2-2-3.5-1.7
	c-1.2,0.2-2.2,1.2-2.6,2.8c-0.4,1.2-0.4,2.8-0.1,4.3C150.2,93.3,152.1,95.6,154.2,95.6z"/>
<path class="st2" d="M127.4,93.2c0.2,0,0.3,0,0.5,0c1.2-0.2,2.1-1.2,2.5-2.7c0.3-1.2,0.4-2.6,0.1-4c-0.3-1.4-0.8-2.8-1.5-3.7
	c-0.9-1.3-2.1-1.9-3.3-1.6c-1.2,0.2-2.1,1.2-2.5,2.7c-0.3,1.2-0.4,2.6-0.1,4C123.6,91,125.4,93.2,127.4,93.2z"/>
<path class="st2" d="M44.4,149.3c-0.2-0.9-0.7-1.6-1.4-2.1c-0.7-0.5-1.6-0.6-2.5-0.5c-0.9,0.2-1.6,0.7-2.1,1.4
	c-0.5,0.7-0.7,1.6-0.5,2.5c0.2,0.9,0.7,1.6,1.4,2.1c0.5,0.4,1.2,0.5,1.8,0.5c0.2,0,0.5,0,0.7-0.1c0.9-0.2,1.6-0.7,2.1-1.4
	C44.4,151,44.6,150.1,44.4,149.3z"/>
<path class="st2" d="M68.6,149.4c-1.8,0.4-2.9,2.1-2.6,3.9c0.3,1.6,1.7,2.6,3.3,2.6c0.2,0,0.5,0,0.7-0.1c1.8-0.4,2.9-2.1,2.6-3.9
	C72.1,150.2,70.4,149,68.6,149.4z"/>
<path class="st2" d="M61.8,168.5c-0.4-0.3-0.9-0.4-1.3-0.3c-0.5,0.1-0.9,0.4-1.1,0.7c-0.3,0.4-0.9,0.9-1.4,1.1
	c-0.1-0.1-0.2-0.3-0.3-0.4c-0.4-0.5-0.7-0.8-1-1.2c0,0,0,0,0,0c-0.9-1,1-3.1,1.7-3.8c0.1-0.1,0.2-0.3,0.3-0.4c0.6-0.8,1.5-2,1.2-3.3
	c-0.5-2.5-3.3-2.5-5-2.4c-0.3,0-0.6,0-0.8,0l-0.2,0c-1,0-2.1,0-3.1,0.9c-1.1,1.2-1,2.7,0.2,4.3c1.5,1.9,1.7,2.9,1.6,3.4
	c0,0.2-0.1,0.4-0.3,0.6c-0.5,0.3-1.1,0.7-1.7,1.1c-0.2,0.1-0.5,0.4-0.8,0.6c-0.7-0.5-1.9-1.5-2.1-2.1c-0.2-0.4-0.5-0.8-1-0.9
	c-0.4-0.2-0.9-0.2-1.3,0c-0.9,0.4-1.3,1.4-0.9,2.3c0.6,1.4,3.6,4.4,5.5,4.4c0.8,0,1.5-0.5,2.7-1.4c0.5-0.3,1.2-0.6,1.4-0.6
	c0,0,0,0,0,0c0.2,0,0.6,0.3,0.9,0.7c0.8,1,1.2,1.5,1.7,1.8c0.3,0.1,0.6,0.2,1,0.2c0,0,0.1,0,0.1,0c1.6-0.1,3.8-1.6,4.6-2.9
	C62.8,170.1,62.6,169,61.8,168.5z"/>
<path class="st2" d="M128.6,224.5c12.8-9.4,31.2-25.3,46.3-47.9c0.9-0.4,1.6-0.9,2.3-1.5c0.1-0.1,0.2-0.1,0.2-0.2c0,0,0,0,0,0l0,0
	c0.9-1,2.4-3.9,7.7-14.3l1.9-3.6c0.3-0.7,0.6-1.3,0.9-1.8l0.4-0.7c0.4-0.7,0.3-1.5,0-2.2c7.8-17.8,11.8-36.4,11.8-55.5
	c0-0.4-0.4-8.8-0.8-11.7c-1-8.6-4-18.1-8.5-27.4c0.7-1.2,1.2-2.5,1.5-3.9c1.4-6.3-2-19.3-10.2-24.4c-0.6-0.4-2.6-1.6-11.9,1.3
	c-3.1,1-13.5,4.4-15.3,8.4c-0.5,1.1-0.7,2.8-1,5.6c-0.2,1.9-0.6,5.3-1.1,6.4c-2.3,0.8-5.4,1.9-8.1,3c-4.6-4.2-17.8-13.1-23.6-11.1
	c-8.2,2.8-18,13.8-18,23.1c0,1.4,0.7,2.6,1.9,3.3c1,0.6,2.4,0.9,3.9,0.9c2.6,0,5.5-0.7,7.5-1.4c0.6,1.4,0.9,2.4,1,3.2
	c-5.3,8.8-21.9,32.2-26.3,38.4c-6.6-2.5-12.5,0.4-18.2,3.2c-5.1,2.5-10.4,5.1-16.6,4.1c-6.9-1.1-13.9-5.8-19.5-9.6
	c-6.6-4.4-11.8-8-15.5-4.9c-0.7,0.6-1,1.5-0.8,2.4c2.5,9.9-0.6,20.5-4.8,26.7c-1.4,2.1-3,3.7-4.4,4.6c-4.2-13.1-6.4-26.5-6.4-40
	c0-50.8,42.8-92.2,95.4-92.2c15.1,0,29.5,3.3,42.9,9.8c1.2,0.6,2.6,0.1,3.1-1.1c0.6-1.2,0.1-2.6-1.1-3.1C131,3.5,115.9,0,100.1,0
	C44.9,0,0,43.5,0,96.9c0,14.8,2.5,29.4,7.3,43.7c0,0,0,0,0,0c2.3,7.4,5.7,15.2,10.1,23.2c1.2,2.1,2.4,4.2,3.6,6.1
	c0.1,0.1,0.2,0.3,0.2,0.4c0,0,0,0,0,0.1c5.5,9,10.9,15.9,13.7,19.7c0.4,0.6,0.8,1.1,1.1,1.5c0.3,0.4,0.8,0.8,1.4,0.9
	c6.2,1.4,11.7,2,16.8,2c23.5,0,36.3-13.8,48-31.3c4.2,5.6,16.2,10.7,34.3,14.4c3.2,0.7,12.1,2,21,2c3.5,0,7-0.2,10.2-0.7
	c-14,19.5-30.2,33.5-41.8,41.9C112,230.8,102,235.2,100,235.2c-1.3,0-7.9-2.4-18.8-9.5c-1.2-0.8-2.4-1.6-3.7-2.5
	c-6.1-4.2-12.1-9-17.9-14.1c-1-0.9-2.5-0.8-3.3,0.2c-0.9,1-0.8,2.5,0.2,3.3c5.9,5.2,12,10.1,18.3,14.5c1.3,0.9,2.5,1.7,3.7,2.5
	c6.1,4,11.8,7.1,16,8.8c2.3,1,4.2,1.5,5.4,1.5C104.3,239.9,116.6,233.3,128.6,224.5z M107.8,65.4c0.4-6.4,7.9-15.7,14.8-18.1
	c2.5-0.9,12.2,4.7,17.2,8.6c-1.4,0.6-2.3,1-2.4,1c-1.2,0.5-1.8,1.9-1.3,3.1c0.4,0.9,1.3,1.4,2.2,1.4c0.3,0,0.6-0.1,0.9-0.2
	c0.1,0,10.5-4.4,15.7-6c0,0,0.1,0,0.1,0c0.1,0,0.1-0.1,0.2-0.1c0.1,0,0.2-0.1,0.2-0.1c0,0,0.1,0,0.1,0c0,0,0,0,0.1-0.1
	c0.1-0.1,0.2-0.2,0.3-0.3c1.7-1.5,2.2-4.6,2.7-9.5c0.2-1.6,0.4-3.7,0.6-4.2c1.6-2.7,17.5-8,20.6-7.5c6.3,4.1,8.9,14.9,7.9,19.3
	c-0.2,1-0.7,2.2-1.3,3.1c-0.1,0.1-0.1,0.1-0.2,0.2c-0.7,0.9-1.5,1.5-2.6,1.8c-3.6,0.8-8-3.7-9.4-5.4c-0.8-1-2.3-1.2-3.3-0.4
	s-1.2,2.3-0.4,3.3c0.6,0.8,6,7.3,12.2,7.3c0.6,0,1.2-0.1,1.9-0.2c1-0.2,1.9-0.6,2.8-1.1c3.9,8.4,6.4,16.7,7.3,24.4
	c0.3,2.7,0.7,11.2,0.8,11.2c0,19.7-4.4,38.9-13.1,57.3c-4.3,3.4-14,6.2-35.1,5.1c4.8-2.6,9-6.1,11.7-10.2c0,0,0-0.1,0.1-0.1
	c0.1-0.1,0.1-0.1,0.2-0.2c2.9-3.8,4.6-8.5,5-13.3l1.3-0.7c1.1-0.6,1.6-2.1,0.9-3.2c-0.6-1.1-2.1-1.6-3.2-0.9l-2.5,1.4
	c-0.9,0.5-1.4,1.6-1.2,2.5c0,0,0,0,0,0c-0.2,4.1-1.6,8.1-4.1,11.4c-0.1,0.1-0.1,0.2-0.1,0.2c-0.1,0.1-0.2,0.3-0.3,0.4
	c-5.6,8.8-20.3,14.3-30.4,13.9c-6.1-0.2-13.8-2.4-19.7-5.5l-0.4-0.2c-15.1-10.6-18.8-24.4-10.6-40.1c1.8-2.5,22.3-31.3,27.9-40.8
	c0,0,0-0.1,0.1-0.1c0-0.1,0.1-0.2,0.1-0.2c0-0.1,0-0.1,0.1-0.2c0-0.1,0-0.1,0.1-0.2c0-0.1,0-0.2,0-0.3c0,0,0-0.1,0-0.1
	c0,0,0-0.1,0-0.1c0,0,0,0,0-0.1c0-3-1.3-6.2-4.6-11.3c-0.7-1.1-2.1-1.4-3.2-0.7c-1.1,0.7-1.4,2.1-0.7,3.2c0.2,0.3,0.4,0.6,0.6,0.9
	C111.8,65.2,109,65.7,107.8,65.4z M39.3,188.1c-0.2-0.2-0.4-0.5-0.6-0.8c-2.9-3.7-8.3-10.7-13.7-19.7c-5.1-8.6-9.2-17.3-12.4-26.1
	c2.4-1.1,4.7-3.4,6.8-6.4c4.4-6.6,7.8-17.5,5.9-28.1c2.1,0.7,6,3.4,8.6,5.1c6,4,13.5,9.1,21.4,10.4c7.6,1.3,13.9-1.8,19.4-4.5
	c5.1-2.5,9.3-4.6,13.8-3.3c-7.6,16.5-3.4,31.6,11.8,43C86.2,179.4,72.2,195.2,39.3,188.1z M137.5,173c-18.4-3.8-27.9-8.6-31-12
	c5.7,2.4,12.2,4,17.8,4.2c0.4,0,0.8,0,1.2,0c3.8,0,8-0.7,12.2-1.9c0.2,0.1,0.4,0.1,0.5,0.1c19.3,1.7,33.1,0.9,41.6-2.5
	c-2.2,4.3-4.9,9.6-5.6,10.7c-0.5,0.4-1,0.7-1.7,1.1c-0.1,0-0.2,0.1-0.3,0.2C164.7,176.1,146.5,174.8,137.5,173z"/>
<path class="st2" d="M112.8,116.9c-9.6,1-16.7,8.1-15.9,14.8c1,8.5,11,11.9,18.5,11.1c8.2-0.9,16.7-7.5,16.1-15.6
	C130.9,120.5,122.4,115.9,112.8,116.9z"/>
<path class="st3" d="M244.1,148.7c4,1.6,8.3,2.4,13,2.4c3.6,0,7.1-0.7,10.3-2c3.2-1.4,5.8-3.3,7.7-5.8c2-2.5,2.9-5.5,2.9-8.9
	c0-3.7-0.9-6.7-2.6-9c-1.7-2.3-3.9-4-6.5-5.2c-2.6-1.2-5.9-2.3-9.9-3.4c-4.6-1.2-8.1-2.5-10.4-3.8c-2.4-1.4-3.7-3.5-3.8-6.4
	c0-3,1.1-5.2,3.3-6.5c2.1-1.2,4.6-1.8,7.6-1.8c2.9,0,5.5,0.5,7.9,1.5c2.4,1,4.4,2.5,6,4.4c0.7,0.8,1.6,1.2,2.8,1.2
	c1,0,1.8-0.3,2.4-0.9c1.1-1,1.6-2,1.6-3.1c0-1-0.4-2-1.2-2.9c-2.2-2.7-5.1-4.8-8.5-6.1c-7.1-2.7-14.7-2.6-20.8,0.1
	c-3.1,1.4-5.6,3.3-7.5,5.8c-1.8,2.4-2.8,5.3-2.8,8.6c0,3.7,0.9,6.7,2.8,9c1.9,2.3,4.2,4.1,6.9,5.3c2.8,1.2,6.3,2.4,10.4,3.5
	c4.3,1.1,7.7,2.4,10,3.8c2.4,1.5,3.6,3.6,3.6,6.4c0,3-1.2,5.2-3.6,6.6c-2.3,1.3-4.9,2-7.9,2.1c-3.7,0-6.9-0.7-9.6-2
	c-2.7-1.3-5.2-3.3-7.5-5.9c-1-1-2.1-1.5-3.3-1.5c-0.9,0-1.6,0.2-2.3,0.7c-1.4,1-2.1,2.1-2.1,3.4c0,0.9,0.3,1.8,0.9,2.7
	C236.8,144.5,240.2,147.1,244.1,148.7z"/>
<path class="st3" d="M341.2,129.1c0.6-2.6,1-5.4,1-8.2c0-5.8-1.3-11-3.9-15.7c-2.6-4.6-6.1-8.3-10.6-10.9c-4.5-2.6-9.5-3.9-14.8-3.9
	c-5.4,0-10.4,1.3-14.8,3.9c-4.5,2.6-8,6.2-10.6,10.9c-2.6,4.6-3.9,9.9-3.9,15.7c0,5.8,1.3,11,3.9,15.6c2.6,4.6,6.2,8.2,10.6,10.8
	c4.5,2.6,9.4,3.9,14.8,3.9c5.4,0,10.4-1.3,14.8-3.9c4.5-2.6,8-6.2,10.6-10.8C339.6,134.2,340.5,131.7,341.2,129.1z M330,132
	c-1.7,3.2-4.1,5.8-7.1,7.6c-3,1.8-6.4,2.7-10,2.7c-3.6,0-7-0.9-10-2.7c-3-1.8-5.4-4.4-7.1-7.6c-1.7-3.2-2.6-7-2.6-11
	c0-4.2,0.9-7.9,2.6-11.2c1.7-3.3,4.1-5.9,7.1-7.7c3-1.8,6.3-2.8,10-2.8c3.6,0,7,0.9,10,2.8c3,1.8,5.4,4.4,7.1,7.7h0
	c1.7,3.3,2.6,7,2.6,11.2C332.6,125,331.7,128.7,330,132z"/>
<path class="st3" d="M370.1,78.1c1.3-1.6,3.3-2.5,6-2.5c1.2,0,2.8,0.2,4.5,0.7c1.8,0.4,2.2,0.4,2.3,0.4c1,0,1.9-0.4,2.7-1.2
	c0.8-0.8,1.1-1.9,1.1-3.2c0-1.7-0.8-2.9-2.6-3.7c-1.9-0.9-4.1-1.4-6.5-1.4c-6,0-10.7,1.5-14,4.5c-3.3,3-4.9,7.1-4.9,12.2v8.5H351
	c-1.3,0-2.3,0.4-3.2,1.3c-0.9,0.8-1.3,1.9-1.3,3.1c0,1.3,0.4,2.3,1.3,3.1c0.9,0.8,1.9,1.2,3.2,1.2h7.6v43.6c0,1.4,0.4,2.5,1.4,3.4
	c0.9,1,2,1.4,3.4,1.4c1.4,0,2.6-0.5,3.5-1.4c0.9-1,1.4-2.1,1.4-3.4v-43.6H380c1.4,0,2.4-0.4,3.3-1.2c0.4-0.4,0.7-0.9,0.9-1.4
	c0.2-0.4,0.2-0.8,0.3-1.3c0-0.1,0-0.3,0-0.4c0-0.3,0-0.6-0.1-0.9v0c-0.1-0.4-0.2-0.8-0.4-1.2c-0.2-0.4-0.4-0.7-0.8-1.1
	c-0.8-0.8-1.9-1.2-3.3-1.2h-11.8V84C368.2,81.7,368.9,79.7,370.1,78.1z"/>
<path class="st3" d="M410.8,150c2.1,0,4.1-0.5,5.8-1.6c1.6-1,2.4-2.2,2.4-3.6c0-1.2-0.3-2.1-0.9-2.8c-0.6-0.7-1.2-1-2-1
	c-0.5,0-1.1,0.1-2,0.4c-1,0.3-1.7,0.4-2.3,0.4c-2.6,0-5.7-1.1-5.7-6.2v-34.3h10c1.3,0,2.3-0.4,3.2-1.2c0.8-0.8,1.2-1.8,1.2-3.1
	c0-1.3-0.4-2.3-1.2-3.2c-0.8-0.8-1.9-1.2-3.2-1.2h-10V82.4c0-1.4-0.4-2.5-1.4-3.4c-0.9-0.9-2-1.4-3.4-1.4c-1.4,0-2.6,0.5-3.5,1.4
	c-0.9,1-1.4,2.1-1.4,3.4v10.1h-7.2c-1.3,0-2.3,0.4-3.2,1.2c-0.4,0.4-0.7,0.9-1,1.4c-0.1,0.4-0.2,0.8-0.3,1.3c0,0.1,0,0.3,0,0.4
	c0,0.3,0,0.6,0.1,0.9c0.1,0.4,0.2,0.8,0.4,1.2c0.2,0.4,0.5,0.7,0.8,1.1c0.8,0.8,1.9,1.2,3.2,1.2h7.2V136c0,4.2,0.8,7.4,2.3,9.4
	c1.5,2,3.3,3.3,5.2,3.8C406.1,149.7,408.4,150,410.8,150z"/>
<path class="st3" d="M438.5,148.7c4,1.6,8.3,2.4,13,2.4c3.6,0,7-0.7,10.2-2c3.2-1.4,5.8-3.3,7.8-5.8c1.9-2.5,2.9-5.5,2.9-8.9
	c0-3.7-0.9-6.7-2.6-9c-1.7-2.3-3.9-4-6.5-5.2c-2.6-1.2-5.9-2.3-9.9-3.4c-4.6-1.2-8.1-2.5-10.4-3.8c-2.4-1.4-3.7-3.5-3.8-6.4
	c0-3,1.1-5.2,3.3-6.5c2.1-1.2,4.6-1.8,7.6-1.8c2.8,0,5.5,0.5,7.9,1.5c2.4,1,4.4,2.5,6.1,4.4c0.7,0.8,1.6,1.2,2.8,1.2
	c1,0,1.8-0.3,2.4-0.9c1.1-1,1.6-2,1.6-3.1c0-1-0.4-2-1.2-2.9c-2.2-2.7-5.1-4.8-8.5-6.1c-7.1-2.7-14.7-2.6-20.9,0.1
	c-3.1,1.4-5.6,3.3-7.5,5.8c-1.8,2.4-2.8,5.3-2.8,8.6c0,3.7,0.9,6.7,2.8,9c1.9,2.3,4.2,4.1,6.9,5.3c2.8,1.2,6.3,2.4,10.5,3.5
	c4.3,1.1,7.7,2.4,9.9,3.8c2.4,1.5,3.6,3.6,3.6,6.4c0,3-1.2,5.2-3.6,6.6c-2.3,1.3-4.9,2-7.9,2.1c-3.7,0-6.9-0.7-9.6-2
	c-2.7-1.3-5.2-3.3-7.5-5.9c-1-1-2.1-1.5-3.3-1.5c-0.9,0-1.6,0.2-2.3,0.7c-1.4,1-2.1,2.1-2.1,3.4c0,0.9,0.3,1.8,0.9,2.7
	C431.2,144.5,434.6,147.1,438.5,148.7z"/>
<path class="st3" d="M491.1,167.8v-26.8l1,1.2c2,2.4,4.8,4.5,8.1,6.2c3.3,1.7,6.9,2.6,10.7,2.6c4.9,0,9.4-1.3,13.4-3.9
	c4-2.6,7.3-6.2,9.6-10.7c2.3-4.5,3.5-9.8,3.5-15.5c0-5.8-1.2-11-3.5-15.6c-2.3-4.6-5.6-8.2-9.6-10.7c-2-1.3-4.2-2.2-6.5-2.9
	c-2.3-0.6-4.7-1-7.2-1c-3.8,0-7.4,0.9-10.8,2.8c-3.4,1.8-6,4.1-7.7,6.6l-1.1,1.6v-5.2c0-1.4-0.4-2.6-1.4-3.6c-0.9-1-2-1.4-3.5-1.4
	c-1.4,0-2.6,0.5-3.4,1.4c-0.9,1-1.3,2.1-1.3,3.6v71.3c0,1.4,0.4,2.6,1.4,3.5c0.9,0.9,2,1.4,3.4,1.4c1.4,0,2.6-0.5,3.5-1.4
	C490.7,170.3,491.1,169.2,491.1,167.8z M493,110c1.6-3.3,3.8-5.8,6.7-7.7c2.9-1.8,6.2-2.8,9.8-2.8c3.6,0,6.8,0.9,9.7,2.8
	c2.9,1.9,5.1,4.4,6.7,7.7c1.6,3.2,2.4,6.9,2.4,10.9c0,4-0.8,7.6-2.4,10.9c-1.6,3.2-3.9,5.8-6.7,7.6v0c-2.9,1.9-6.2,2.8-9.7,2.8
	c-3.6,0-7-0.9-9.8-2.8c-2.9-1.8-5.1-4.4-6.7-7.7c-1.6-3.2-2.4-6.9-2.4-10.9C490.6,116.9,491.4,113.2,493,110z"/>
<path class="st3" d="M587.1,94.3c-4.5-2.6-9.5-3.9-14.8-3.9c-5.4,0-10.4,1.3-14.8,3.9c-4.5,2.6-8,6.2-10.6,10.9
	c-2.6,4.6-3.9,9.9-3.9,15.7c0,5.8,1.3,11,3.9,15.6c2.6,4.6,6.1,8.2,10.6,10.8c4.5,2.6,9.4,3.9,14.8,3.9s10.4-1.3,14.8-3.9
	c4.4-2.6,8-6.2,10.6-10.8c1.3-2.3,2.3-4.7,2.9-7.3c0.6-2.6,1-5.4,1-8.2c0-5.8-1.3-11-3.9-15.7C595.1,100.6,591.6,96.9,587.1,94.3z
	 M589.4,132c-1.7,3.2-4.1,5.8-7.1,7.6c-3,1.8-6.3,2.7-10,2.7s-7-0.9-10-2.7c-3-1.8-5.4-4.4-7.1-7.6c-1.7-3.2-2.6-7-2.6-11
	c0-4.2,0.9-7.9,2.6-11.2c1.7-3.3,4.1-5.9,7.1-7.7c3-1.8,6.3-2.8,10-2.8c3.6,0,7,0.9,10,2.8c3,1.8,5.4,4.4,7.1,7.7
	c1.7,3.3,2.6,7,2.6,11.2C592,125,591.1,128.7,589.4,132z"/>
<path class="st3" d="M635.6,92.5h-10V82.4c0-1.4-0.4-2.5-1.4-3.4c-0.9-0.9-2-1.4-3.4-1.4c-1.4,0-2.6,0.5-3.5,1.4
	c-0.9,1-1.4,2.1-1.4,3.4v10.1h-7.2c-1.3,0-2.3,0.4-3.2,1.2c-0.8,0.8-1.2,1.8-1.2,3.1c0,1.3,0.4,2.3,1.2,3.2c0.8,0.8,1.9,1.2,3.2,1.2
	h7.2V136c0,4.2,0.8,7.4,2.3,9.4c1.5,2,3.3,3.3,5.2,3.8c2,0.5,4.3,0.8,6.7,0.8c2.1,0,4.1-0.5,5.8-1.6c1.6-1,2.4-2.2,2.4-3.6
	c0-1.2-0.3-2.1-0.9-2.8c-0.6-0.7-1.2-1-2-1c-0.5,0-1.1,0.1-2,0.4c-1,0.3-1.7,0.4-2.3,0.4c-2.6,0-5.7-1.1-5.7-6.2v-34.3h10
	c1.3,0,2.3-0.4,3.2-1.2c0.8-0.8,1.2-1.8,1.2-3.1c0-1.3-0.4-2.3-1.2-3.2C637.9,92.9,636.9,92.5,635.6,92.5z"/>
<g>
	<path class="st3" d="M139.9,189c0,0,8.7-9.4,5.9-16.3c-1-2.5-3.1-4.8-6.7-4.5c-4,0.4-5.2,3.3-5.8,5c-1.7-0.8-4.8-1.8-7.6,0.3
		c-2.6,2-2.5,5.3-1.4,7.8C127.1,188.3,139.9,189,139.9,189z"/>
</g>
<polygon class="st4" points="558.9,42.1 554.1,42.1 554.1,42.1 558.9,42.1 "/>
<g>
	<path class="st3" d="M648.5,57.6c1,0,1.8,0.8,1.8,1.7c0,1-0.8,1.8-1.8,1.8h-3.5V77c0,1-0.8,1.7-1.8,1.7c-1,0-1.7-0.8-1.7-1.7V61.2
		H638c-1,0-1.7-0.8-1.7-1.8c0-1,0.8-1.7,1.7-1.7H648.5z"/>
	<path class="st3" d="M668.5,77V64.6l-4.7,6.3c-0.3,0.5-0.9,0.7-1.4,0.7s-1.1-0.3-1.4-0.7l-4.7-6.3V77c0,1-0.8,1.7-1.8,1.7
		c-1,0-1.7-0.8-1.7-1.7V59.4c0-0.9,0.8-1.7,1.8-1.7c0.5,0,1.1,0.2,1.4,0.7l6.5,8.7l6.5-8.7c0.3-0.5,0.8-0.7,1.4-0.7
		c1,0,1.8,0.8,1.8,1.7V77c0,1-0.8,1.7-1.8,1.7C669.3,78.7,668.5,77.9,668.5,77z"/>
</g>
</svg>