<svg xmlns="http://www.w3.org/2000/svg" viewBox="0 0 111.6 98.61"><defs><style>.cls-1{fill:#dcdcdc;}.cls-2{fill:#4c4c4c;}.cls-3{fill:#ff6566;}</style></defs><title>logo_vertical</title><g id="Layer_2" data-name="Layer 2"><g id="Layer_1-2" data-name="Layer 1"><path class="cls-1" d="M71.2,45.2A49.3,49.3,0,0,1,59.38,57.48a14.92,14.92,0,0,1-.11-1.78,15.31,15.31,0,0,1,4.06-10.4A29.69,29.69,0,0,0,71.2,45.2Z"/><circle class="cls-1" cx="68.23" cy="22.82" r="5.71"/><path class="cls-1" d="M41.23,33.11a9,9,0,0,1-9,9l-.52,0a32,32,0,0,1-2.54-5.85C30.72,36,33,33.16,32.9,27A16.23,16.23,0,0,0,41,31.15,9,9,0,0,1,41.23,33.11Z"/><path class="cls-1" d="M47,53a.4.4,0,0,0-.1-.28c-.17-.16-.43,0-.58.21l-2.36,2.8c1,.88.45.6,1.48,1.48.28.25,1.79,2.09,2,1.41A37.43,37.43,0,0,1,47,53Z"/><path class="cls-2" d="M66.29,24.9h.13c.61-.11.92-.9.74-1.88a2.5,2.5,0,0,0-.42-1,1,1,0,0,0-.93-.46,1,1,0,0,0-.7.76,2.45,2.45,0,0,0,0,1.12C65.24,24.28,65.73,24.9,66.29,24.9Z"/><path class="cls-2" d="M58.27,22.86c.15.84.62,1.43,1.15,1.43l.13,0a.9.9,0,0,0,.68-.72,2.45,2.45,0,0,0,0-1.05,2.23,2.23,0,0,0-.39-1,.9.9,0,0,0-.89-.44.93.93,0,0,0-.68.72A2.45,2.45,0,0,0,58.27,22.86Z"/><path class="cls-2" d="M36.78,39.56a.88.88,0,0,0,.49.15l.18,0a.9.9,0,0,0,.69-1.06h0a.89.89,0,0,0-1-.69A.9.9,0,0,0,36.4,39,.88.88,0,0,0,36.78,39.56Z"/><path class="cls-2" d="M44.49,40.4l.18,0a.89.89,0,0,0,.69-1.05.91.91,0,0,0-.38-.57.89.89,0,1,0-.49,1.64Z"/><path class="cls-2" d="M38,43.64c.17.38.92,1.14,1.43,1.14h0a1.43,1.43,0,0,0,.71-.36.9.9,0,0,1,.33-.14.66.66,0,0,1,.21.16,1.41,1.41,0,0,0,.46.48.75.75,0,0,0,.26,0h0a1.86,1.86,0,0,0,1.22-.75.49.49,0,0,0-.13-.68.48.48,0,0,0-.68.13.94.94,0,0,1-.32.26l-.07-.09-.24-.3h0c-.2-.23.28-.76.44-.93a.58.58,0,0,0,.08-.1,1.11,1.11,0,0,0,.32-.88h0c-.15-.69-.89-.67-1.33-.66h-.24a.94.94,0,0,0-.82.25.82.82,0,0,0,0,1.15c.38.5.41.74.4.84a.16.16,0,0,1-.08.12h0c-.14.08-.28.18-.44.29l-.17.12a1.81,1.81,0,0,1-.5-.5.5.5,0,0,0-.91.39Z"/><path class="cls-2" d="M30.91,42.54c.28.51.56,1,.85,1.46l.13.23,0,0a57.6,57.6,0,0,0,3.52,5.06l.29.37a.9.9,0,0,0,.52.33,19.83,19.83,0,0,0,4.42.54c6,0,9.32-3.44,12.31-7.86,1.73,1.82,6.08,2.95,8.71,3.49a34,34,0,0,0,5.51.51c.64,0,1.28,0,1.89-.09A49.05,49.05,0,0,1,58.84,56.75c-3.67,2.68-6.06,3.63-6.45,3.65A16.27,16.27,0,0,1,47.69,58l-.9-.61a46.33,46.33,0,0,1-4.55-3.6A.91.91,0,0,0,41,55.13a51.58,51.58,0,0,0,4.73,3.73l1,.66c2,1.3,4.52,2.69,5.65,2.69s4.35-1.68,7.53-4A50,50,0,0,0,71.82,45.9a3.2,3.2,0,0,0,.53-.34l.13-.11h0a29.3,29.3,0,0,0,2.07-3.8l.78-1.53a.92.92,0,0,0,0-.71,35.48,35.48,0,0,0,3-14.26c0-.09-.11-2.26-.21-3a22.82,22.82,0,0,0-2.14-7,4,4,0,0,0,.35-1c.38-1.71-.53-5.21-2.75-6.6-.24-.14-.79-.49-3.32.29C69,8.28,66.67,9.13,66.2,10.2a6,6,0,0,0-.29,1.52,10.35,10.35,0,0,1-.22,1.44c-.54.18-1.19.42-1.8.66-1.32-1.15-4.58-3.36-6.21-2.79-2.19.76-4.83,3.7-4.82,6.21a1.28,1.28,0,0,0,.63,1.12,2.29,2.29,0,0,0,1.16.27,6.2,6.2,0,0,0,1.74-.3,1.63,1.63,0,0,1,.11.4C55.14,21,51.23,26.5,49.94,28.3c-1.74-.53-3.3.24-4.7.92a6.59,6.59,0,0,1-4.08,1,13.61,13.61,0,0,1-4.89-2.43c-1.8-1.21-3.22-2.16-4.35-1.24a.9.9,0,0,0-.31.93,8.69,8.69,0,0,1-1.18,6.63,4,4,0,0,1-.73.84,33.08,33.08,0,0,1-1.49-9.79C28.21,12.3,39.06,1.81,52.4,1.81a24.52,24.52,0,0,1,10.88,2.5.91.91,0,0,0,.8-1.63A26.39,26.39,0,0,0,52.4,0c-14.34,0-26,11.3-26,25.19a35,35,0,0,0,1.9,11.33h0A32.57,32.57,0,0,0,30.91,42.54Zm40.28,1.63a2.45,2.45,0,0,1-.29.18l-.11,0c-1.79.82-6.49.49-8.72,0a27.51,27.51,0,0,1-5.87-1.77,12.35,12.35,0,0,0,2.4.36h.31A11.25,11.25,0,0,0,62,42.54l.11,0c4.49.4,7.84.26,10.11-.42C71.81,43,71.35,43.89,71.19,44.17ZM58.26,12.74c.57-.1,2.49,1,3.72,1.85l-.14.06a.91.91,0,0,0,.71,1.67s2.69-1.13,4-1.54h0l.09,0,.08,0,0,0,0,0,.1-.07c.52-.46.65-1.32.8-2.65,0-.32.1-.79.14-1a12.63,12.63,0,0,1,4.89-1.78h0a5.52,5.52,0,0,1,1.84,4.6,2.12,2.12,0,0,1-.29.68l0,0a.91.91,0,0,1-.53.38c-.7.14-1.73-.8-2.12-1.29a.91.91,0,0,0-1.27-.15.92.92,0,0,0-.15,1.28c.18.22,1.63,2,3.39,2a2.46,2.46,0,0,0,.53-.06,3.05,3.05,0,0,0,.51-.17,20.81,20.81,0,0,1,1.71,5.88c.09.69.19,2.84.2,2.84a34,34,0,0,1-3.3,14.51c-.94.69-3,1.39-7.77,1.25a7.84,7.84,0,0,0,2.24-2.2v0l0,0a6.79,6.79,0,0,0,1.32-3.41l.2-.11a.91.91,0,0,0-.87-1.59l-.65.36a.87.87,0,0,0-.46.92,5,5,0,0,1-1,2.74l0,0a.76.76,0,0,0-.11.14c-1.39,2.17-5,3.53-7.54,3.43a12.31,12.31,0,0,1-4.91-1.38l-.08,0c-3.73-2.61-4.64-6-2.63-9.9.56-.8,5.74-8.06,7.16-10.47,0,0,0,0,0-.06a.2.2,0,0,0,0-.08l0-.09s0-.05,0-.08,0-.07,0-.1v-.12a6,6,0,0,0-1.22-3,.91.91,0,0,0-1.25-.29.92.92,0,0,0-.34,1.14,4.29,4.29,0,0,1-.81.12A6.42,6.42,0,0,1,58.26,12.74ZM31.94,35.15a10.84,10.84,0,0,0,1.65-6.88c.49.27,1.14.7,1.67,1.06A15,15,0,0,0,40.86,32,8.27,8.27,0,0,0,46,30.85a5.83,5.83,0,0,1,3-.9c-1.77,4.16-.71,8,3.05,10.89C48.57,46.21,45,50,37,48.33l-.09-.11a55.22,55.22,0,0,1-3.57-5.14,38.5,38.5,0,0,1-3-6.3A5.48,5.48,0,0,0,31.94,35.15Z"/><path class="cls-2" d="M55.67,30.33c-2.46.26-4.29,2.09-4.09,3.81.25,2.18,2.81,3.06,4.76,2.85,2.11-.23,4.29-1.94,4.12-4C60.32,31.25,58.13,30.07,55.67,30.33Z"/><path class="cls-2" d="M9.4,84.84A16.45,16.45,0,0,0,6.84,84,11.35,11.35,0,0,1,4.2,83a1.67,1.67,0,0,1-.88-1.52A1.63,1.63,0,0,1,4.09,80,3.62,3.62,0,0,1,6,79.52a5.23,5.23,0,0,1,2,.37A4.21,4.21,0,0,1,9.43,81a1.12,1.12,0,0,0,.84.35,1.08,1.08,0,0,0,.73-.27,1.24,1.24,0,0,0,.46-.9,1.28,1.28,0,0,0-.35-.85,5.27,5.27,0,0,0-2.25-1.6,7.77,7.77,0,0,0-2.78-.52,6.63,6.63,0,0,0-2.69.55,5,5,0,0,0-2,1.54,3.79,3.79,0,0,0-.74,2.31A3.69,3.69,0,0,0,1.41,84a4.72,4.72,0,0,0,1.82,1.4,18,18,0,0,0,2.71.92,9.69,9.69,0,0,1,2.51,1,1.81,1.81,0,0,1,0,3.07,4.15,4.15,0,0,1-2,.51,5.42,5.42,0,0,1-2.41-.5,6.19,6.19,0,0,1-1.87-1.48,1.34,1.34,0,0,0-1-.44,1.11,1.11,0,0,0-.67.21,1.19,1.19,0,0,0-.61,1,1.4,1.4,0,0,0,.26.79,6.36,6.36,0,0,0,2.63,2,9,9,0,0,0,3.39.64A6.82,6.82,0,0,0,9,92.54,5.13,5.13,0,0,0,11,91a3.75,3.75,0,0,0,.78-2.37,3.85,3.85,0,0,0-.7-2.41A4.49,4.49,0,0,0,9.4,84.84Z"/><path class="cls-2" d="M24.48,78.21a7.91,7.91,0,0,0-7.77,0,7.47,7.47,0,0,0-2.78,2.85,8.41,8.41,0,0,0-1,4.1,8.23,8.23,0,0,0,1,4.08,7.53,7.53,0,0,0,2.78,2.82,7.91,7.91,0,0,0,7.77,0,7.38,7.38,0,0,0,2.78-2.82,8.13,8.13,0,0,0,1-4.08,8.31,8.31,0,0,0-1-4.1A7.33,7.33,0,0,0,24.48,78.21Zm.38,9.72a4.94,4.94,0,0,1-1.77,1.91,4.9,4.9,0,0,1-5,0,4.94,4.94,0,0,1-1.77-1.91,5.76,5.76,0,0,1-.66-2.77,5.85,5.85,0,0,1,.66-2.8,4.77,4.77,0,0,1,1.77-1.92,4.84,4.84,0,0,1,5,0,4.77,4.77,0,0,1,1.77,1.92,5.84,5.84,0,0,1,.65,2.8A5.75,5.75,0,0,1,24.86,87.93Z"/><path class="cls-2" d="M47.13,77.71H44.72V75.27a1.37,1.37,0,0,0-.39-1,1.4,1.4,0,0,0-2,0,1.37,1.37,0,0,0-.39,1v2.44H40.27a1.28,1.28,0,0,0-.92.35,1.18,1.18,0,0,0-.28.45.43.43,0,0,0,0-.05,1.22,1.22,0,0,0-.26-.38,1.27,1.27,0,0,0-.95-.37H35v-2a2.21,2.21,0,0,1,.46-1.43,1.63,1.63,0,0,1,1.4-.58,4.48,4.48,0,0,1,1.11.17,4.39,4.39,0,0,0,.64.12,1,1,0,0,0,.8-.37,1.26,1.26,0,0,0,.33-.91A1.16,1.16,0,0,0,39,71.59a4.06,4.06,0,0,0-1.75-.37,5.21,5.21,0,0,0-3.69,1.21,4.23,4.23,0,0,0-1.31,3.25v2h-1.8a1.24,1.24,0,0,0-.93.37,1.19,1.19,0,0,0-.38.91,1.14,1.14,0,0,0,.38.9,1.27,1.27,0,0,0,.93.35h1.8V91.3a1.37,1.37,0,0,0,.39,1,1.29,1.29,0,0,0,1,.4,1.33,1.33,0,0,0,1-.4,1.37,1.37,0,0,0,.39-1V80.24h2.88a1.3,1.3,0,0,0,.95-.35,1.07,1.07,0,0,0,.28-.44l0,0a1,1,0,0,0,.25.38,1.25,1.25,0,0,0,.92.36H42V89a4.14,4.14,0,0,0,.62,2.52,2.57,2.57,0,0,0,1.42,1,7.05,7.05,0,0,0,1.77.2,2.92,2.92,0,0,0,1.57-.43,1.26,1.26,0,0,0,.7-1,1.2,1.2,0,0,0-.27-.81.79.79,0,0,0-.64-.32,2,2,0,0,0-.55.1,2,2,0,0,1-.55.1c-.87,0-1.31-.49-1.31-1.45V80.24h2.41a1.24,1.24,0,0,0,.92-.35,1.19,1.19,0,0,0,.36-.9,1.24,1.24,0,0,0-.36-.91A1.22,1.22,0,0,0,47.13,77.71Z"/><path class="cls-2" d="M59.33,84.84A16.83,16.83,0,0,0,56.77,84a11.18,11.18,0,0,1-2.64-1,1.7,1.7,0,0,1-.89-1.52A1.62,1.62,0,0,1,54,80a3.62,3.62,0,0,1,1.87-.45,5.15,5.15,0,0,1,2,.37A4,4,0,0,1,59.35,81a1.16,1.16,0,0,0,.85.35,1.09,1.09,0,0,0,.73-.27,1.24,1.24,0,0,0,.46-.9,1.34,1.34,0,0,0-.35-.85,5.24,5.24,0,0,0-2.26-1.6A7.68,7.68,0,0,0,56,77.19a6.63,6.63,0,0,0-2.69.55,5,5,0,0,0-2,1.54,3.74,3.74,0,0,0-.75,2.31A3.64,3.64,0,0,0,51.34,84a4.76,4.76,0,0,0,1.81,1.4,18.41,18.41,0,0,0,2.71.92,9.78,9.78,0,0,1,2.52,1,1.81,1.81,0,0,1,0,3.07,4.15,4.15,0,0,1-1.95.51,5.42,5.42,0,0,1-2.41-.5,6.19,6.19,0,0,1-1.87-1.48,1.37,1.37,0,0,0-1-.44,1.11,1.11,0,0,0-.67.21,1.16,1.16,0,0,0-.61,1,1.4,1.4,0,0,0,.26.79,6.36,6.36,0,0,0,2.63,2,9,9,0,0,0,3.39.64,6.77,6.77,0,0,0,2.69-.54A5.06,5.06,0,0,0,61,91a3.7,3.7,0,0,0,.79-2.37,3.85,3.85,0,0,0-.7-2.41A4.57,4.57,0,0,0,59.33,84.84Z"/><path class="cls-2" d="M75,78.28a6.6,6.6,0,0,0-3.58-1,6,6,0,0,0-2.86.72,5.79,5.79,0,0,0-2,1.75v-.84a1.41,1.41,0,0,0-.39-1,1.35,1.35,0,0,0-1-.41,1.32,1.32,0,0,0-1,.41,1.44,1.44,0,0,0-.37,1v18.3a1.39,1.39,0,0,0,2.37,1,1.39,1.39,0,0,0,.39-1V90.75a6.76,6.76,0,0,0,2.13,1.63,6,6,0,0,0,2.82.67A6.42,6.42,0,0,0,75,92a7.16,7.16,0,0,0,2.52-2.81,8.76,8.76,0,0,0,.91-4.06,8.86,8.86,0,0,0-.91-4.07A7.09,7.09,0,0,0,75,78.28Zm.18,9.61a4.67,4.67,0,0,1-1.67,1.9,4.38,4.38,0,0,1-2.41.7,4.46,4.46,0,0,1-2.44-.68A4.66,4.66,0,0,1,67,87.9a6.16,6.16,0,0,1-.6-2.74,6.08,6.08,0,0,1,.6-2.73,4.66,4.66,0,0,1,1.68-1.91,4.46,4.46,0,0,1,2.44-.68,4.37,4.37,0,0,1,2.41.69,4.76,4.76,0,0,1,1.67,1.91,6.49,6.49,0,0,1,0,5.45Z"/><path class="cls-2" d="M91.11,78.21a7.91,7.91,0,0,0-7.77,0,7.4,7.4,0,0,0-2.78,2.85,8.42,8.42,0,0,0-1,4.1,8.23,8.23,0,0,0,1,4.08,7.45,7.45,0,0,0,2.78,2.82,7.91,7.91,0,0,0,7.77,0,7.45,7.45,0,0,0,2.78-2.82,8.13,8.13,0,0,0,1-4.08,8.31,8.31,0,0,0-1-4.1A7.4,7.4,0,0,0,91.11,78.21Zm.38,9.72a4.94,4.94,0,0,1-1.77,1.91,4.9,4.9,0,0,1-5,0A5,5,0,0,1,83,87.93a5.87,5.87,0,0,1-.65-2.77,6,6,0,0,1,.65-2.8,4.86,4.86,0,0,1,1.78-1.92,4.84,4.84,0,0,1,5,0,4.77,4.77,0,0,1,1.77,1.92,5.84,5.84,0,0,1,.65,2.8A5.75,5.75,0,0,1,91.49,87.93Z"/><path class="cls-2" d="M103.49,80.24a1.26,1.26,0,0,0,.92-.35,1.19,1.19,0,0,0,.36-.9,1.25,1.25,0,0,0-1.28-1.28h-2.41V75.27a1.38,1.38,0,0,0-.4-1,1.29,1.29,0,0,0-1-.41,1.37,1.37,0,0,0-1.4,1.4v2.44H96.63a1.28,1.28,0,0,0-.92.35,1.23,1.23,0,0,0-.37.9,1.25,1.25,0,0,0,1.29,1.28h1.68V89a4.14,4.14,0,0,0,.63,2.52,2.6,2.6,0,0,0,1.42,1,7,7,0,0,0,1.76.2,2.93,2.93,0,0,0,1.58-.43,1.24,1.24,0,0,0,.69-1,1.2,1.2,0,0,0-.26-.81.79.79,0,0,0-.64-.32,2,2,0,0,0-.55.1,2,2,0,0,1-.55.1c-.88,0-1.31-.49-1.31-1.45V80.24Z"/><path class="cls-2" d="M103.86,74.93a4.4,4.4,0,0,1-1.32-3.21,4.53,4.53,0,0,1,9.06,0,4.54,4.54,0,0,1-7.74,3.21Zm.64-5.77a3.63,3.63,0,1,0,2.57-1.06A3.49,3.49,0,0,0,104.5,69.16Zm4,4.6a.11.11,0,0,0,.11-.07.1.1,0,0,0,0-.12l-.71-1.5a1.32,1.32,0,0,0,.52-.5,1.2,1.2,0,0,0,.17-.72,1.16,1.16,0,0,0-.42-.83,1.25,1.25,0,0,0-.87-.32h-1.41c-.09,0-.13,0-.13.12v3.81c0,.09,0,.13.13.13h.64c.09,0,.13,0,.13-.13V72.19h.3l.71,1.49a.12.12,0,0,0,.11.08Zm-1.83-3.17h.68a.34.34,0,0,1,.25.11.34.34,0,0,1,.11.24.34.34,0,0,1-.11.25.33.33,0,0,1-.25.1h-.68Z"/><path class="cls-3" d="M62.63,48.84s2.24-2.4,1.52-4.19a1.63,1.63,0,0,0-1.72-1.15A1.65,1.65,0,0,0,61,44.79a1.84,1.84,0,0,0-2,.09,1.65,1.65,0,0,0-.38,2C59.34,48.66,62.63,48.84,62.63,48.84Z"/></g></g></svg>