<svg xmlns="http://www.w3.org/2000/svg" viewBox="0 0 39 44"><defs><style>.cls-1{fill:#ff6566;}</style></defs><title>icon_doctor</title><g id="Layer_2" data-name="Layer 2"><g id="Layer_1-2" data-name="Layer 1"><g id="welcome"><g id="Group-9"><g id="Group-4"><path id="Shape" class="cls-1" d="M35.48,36l-.16,0c-.52-.14-1-.28-1.34-.41.75-4.24,2.7-18.3-2.52-26.55L30.64.83A.93.93,0,0,0,29.71,0H9.25a.93.93,0,0,0-.93.83L7.49,9C2.33,17.29,4.28,31.27,5,35.5c-.39.13-.83.27-1.35.41l-.16,0C1.42,36.64,0,39.47,0,41.64V44H39V41.64c0-2.17-1.42-5-3.52-5.69ZM26,37.63l.39,1.59-2.72,3H22l2.45-5.11h0l1.81-3.77,2.07,1.92-2,1.49a.91.91,0,0,0-.33,1ZM15.33,42.16l-2.72-2.94.4-1.59a.92.92,0,0,0-.34-.94l-2-1.49,2.07-1.93,1.81,3.78h0L17,42.17ZM19.74,14c.84-.59,1.65-1.18,2.41-1.75l7.36,4.94a14.38,14.38,0,0,1,.14,2,14,14,0,0,1-3.83,9,14.88,14.88,0,0,1-3.46,2.91,6.17,6.17,0,0,1-2.86,1,6.17,6.17,0,0,1-2.86-1,14.88,14.88,0,0,1-3.46-2.91,14.45,14.45,0,0,1-3.79-8.14A57.73,57.73,0,0,0,19.74,14Zm3.55,21.18-1.82-1.61a11.71,11.71,0,0,0,3-1.64l.13.28a.45.45,0,0,0,.05.1Zm-8.95-2.89,0-.08.13-.28a11.46,11.46,0,0,0,3,1.64l-1.81,1.61Zm18.75-6.75a66.06,66.06,0,0,1-.88,9.25,9.67,9.67,0,0,0-1-.44c-.78-.3-1.43-.57-2-.82L26.6,31.07a.88.88,0,0,0-.28-.17v-.53c2.86-2.78,5.2-6.9,5.2-11.2,0-.22,0-.44,0-.66l1.33.89a47.55,47.55,0,0,1,.26,6.12ZM30.52,11a20.78,20.78,0,0,1,1.81,5.29l.12.59-7.74-5.19c2.95-.22,5.05-.56,5.81-.69ZM10.09,1.83H28.87l.76,7.49a66.78,66.78,0,0,1-10.13.76,2.75,2.75,0,1,0-2.82-2.75,2.77,2.77,0,0,0,2.82,2.75A67.12,67.12,0,0,1,9.33,9.32Zm9.39,6.42a.92.92,0,1,1,.93-.92A.92.92,0,0,1,19.48,8.25ZM6.66,16.37A21.36,21.36,0,0,1,8.48,11a67.43,67.43,0,0,0,11,.87l-.81.58c-5.11,3.62-9.37,5.92-12.46,6.76.12-1,.28-2,.47-2.88Zm-.75,9.21c0-1.53,0-3,.1-4.39.5-.11,1-.26,1.58-.44a17,17,0,0,0,5.09,9.61v.54a1,1,0,0,0-.27.17l-2.6,2.42c-.56.26-1.22.54-2,.83-.34.13-.65.28-1,.45a64.85,64.85,0,0,1-.88-9.19Zm-4,16.06a5.3,5.3,0,0,1,.73-2.49A3.15,3.15,0,0,1,4.08,37.7l.1,0a17.69,17.69,0,0,0,3.48-1.28c.3-.14.56-.26.81-.35L8.65,36l0,0,2.36,1.78-.36,1.48a.87.87,0,0,0,.21.83l1.91,2.07h-11Zm17.24.52-2.54-5.27,3-2.62,2.94,2.62-2.53,5.27Zm18,0H26.2l1.91-2.06a.92.92,0,0,0,.22-.84L28,37.78,30.32,36l0,0,.17.07a8.63,8.63,0,0,1,.81.35,17.69,17.69,0,0,0,3.48,1.28l.1,0a3.15,3.15,0,0,1,1.49,1.45,5.27,5.27,0,0,1,.73,2.49Z"/><path id="Shape-2" data-name="Shape" class="cls-1" d="M21,38a1,1,0,1,0-1,1A1,1,0,0,0,21,38Z"/></g></g></g></g></g></svg>