<svg xmlns="http://www.w3.org/2000/svg" viewBox="0 0 32 39"><defs><style>.cls-1{fill:#ff6566;}</style></defs><title>icon_shield</title><g id="Layer_2" data-name="Layer 2"><g id="Layer_1-2" data-name="Layer 1"><g id="client-app-iOs-hifi"><g id="welcome"><g id="Group-10"><path id="Shape" class="cls-1" d="M31,5.6C24.17,4.8,16.74.23,16.66.18a1.3,1.3,0,0,0-1.32,0C15.26.23,7.83,4.8,1,5.6A1.12,1.12,0,0,0,0,6.68v3c0,11.37,5.56,22,15.26,29.07a1.26,1.26,0,0,0,1.48,0C26.44,31.66,32,21.06,32,9.69v-3A1.12,1.12,0,0,0,31,5.6ZM29.63,9.69A33.75,33.75,0,0,1,16,36.51,34.44,34.44,0,0,1,3.21,17h.88a1.08,1.08,0,1,0,0-2.16H2.79c-.1-.64-.19-1.28-.26-1.93H6.87a1.09,1.09,0,1,0,0-2.16H2.4c0-.36,0-.7,0-1.06V7.61A44.32,44.32,0,0,0,16,2.37c1.94,1.12,7.76,4.27,13.63,5.24Z"/><path id="Shape-2" data-name="Shape" class="cls-1" d="M12.24,18H17l-5.63,5.21a.92.92,0,0,0,.08,1.47,1.37,1.37,0,0,0,1.74-.06l7.52-7c.73-.67.17-1.74-.91-1.74H15l5.63-5.21a.92.92,0,0,0-.08-1.47,1.37,1.37,0,0,0-1.74.06l-7.52,7C10.61,17,11.17,18,12.24,18Z"/></g></g></g></g></g></svg>